<svg  xmlns="http://www.w3.org/2000/svg" xmlns:xlink="http://www.w3.org/1999/xlink">
  <svg x="187.5" y="0.0588664" width="62.5" height="92.9947" >
    <rect x="0%" y="0%" height="100%" width="100%" style="fill: #36c248"/>
  </svg>
  <svg x="125" y="0.0588664" width="62.5" height="122.391" >
    <rect x="0%" y="0%" height="100%" width="100%" style="fill: #b87d6a"/>
  </svg>
  <svg x="375" y="0.0587607" width="62.5" height="132.933" >
    <rect x="0%" y="0%" height="100%" width="100%" style="fill: #e33f9a"/>
  </svg>
  <svg x="312.5" y="0.0587607" width="62.5" height="141.386" >
    <rect x="0%" y="0%" height="100%" width="100%" style="fill: #62d718"/>
  </svg>
  <svg x="0" y="0.0588664" width="125" height="157.015" >
    <rect x="0%" y="0%" height="100%" width="100%" style="fill: #3a5d57"/>
  </svg>
  <svg x="437.5" y="0.0587607" width="46.875" height="159.548" >
    <rect x="0%" y="0%" height="100%" width="100%" style="fill: #89e4b2"/>
  </svg>
  <svg x="109.375" y="157.073" width="15.625" height="54.925" >
    <rect x="0%" y="0%" height="100%" width="100%" style="fill: #d6b441"/>
  </svg>
  <svg x="453.125" y="159.607" width="15.625" height="70.1176" >
    <rect x="0%" y="0%" height="100%" width="100%" style="fill: #e2411d"/>
  </svg>
  <svg x="156.25" y="122.45" width="31.25" height="117.682" >
    <rect x="0%" y="0%" height="100%" width="100%" style="fill: #c709e1"/>
  </svg>
  <svg x="31.25" y="157.073" width="15.625" height="85.661" >
    <rect x="0%" y="0%" height="100%" width="100%" style="fill: #11c7e1"/>
  </svg>
  <svg x="93.75" y="157.073" width="15.625" height="87.3988" >
    <rect x="0%" y="0%" height="100%" width="100%" style="fill: #e7acb6"/>
  </svg>
  <svg x="468.75" y="159.607" width="15.625" height="85.4817" >
    <rect x="0%" y="0%" height="100%" width="100%" style="fill: #f8cac0"/>
  </svg>
  <svg x="125" y="122.45" width="31.25" height="125.191" >
    <rect x="0%" y="0%" height="100%" width="100%" style="fill: #bb2fc4"/>
  </svg>
  <svg x="93.75" y="244.472" width="15.625" height="3.19401" >
    <rect x="0%" y="0%" height="100%" width="100%" style="fill: #c8bc2a"/>
  </svg>
  <svg x="468.75" y="245.089" width="15.625" height="3.32062" >
    <rect x="0%" y="0%" height="100%" width="100%" style="fill: #e3baaa"/>
  </svg>
  <svg x="31.25" y="242.735" width="15.625" height="22.1617" >
    <rect x="0%" y="0%" height="100%" width="100%" style="fill: #b9165c"/>
  </svg>
  <svg x="109.375" y="211.998" width="15.625" height="58.3446" >
    <rect x="0%" y="0%" height="100%" width="100%" style="fill: #c458e1"/>
  </svg>
  <svg x="453.125" y="229.724" width="15.625" height="44.322" >
    <rect x="0%" y="0%" height="100%" width="100%" style="fill: #99cb89"/>
  </svg>
  <svg x="437.5" y="159.607" width="15.625" height="115.077" >
    <rect x="0%" y="0%" height="100%" width="100%" style="fill: #f51b13"/>
  </svg>
  <svg x="62.5" y="157.073" width="15.625" height="128.324" >
    <rect x="0%" y="0%" height="100%" width="100%" style="fill: #5f7091"/>
  </svg>
  <svg x="359.375" y="141.444" width="15.625" height="151.018" >
    <rect x="0%" y="0%" height="100%" width="100%" style="fill: #a5abb0"/>
  </svg>
  <svg x="46.875" y="157.073" width="15.625" height="141.441" >
    <rect x="0%" y="0%" height="100%" width="100%" style="fill: #874df3"/>
  </svg>
  <svg x="156.25" y="240.133" width="15.625" height="59.0321" >
    <rect x="0%" y="0%" height="100%" width="100%" style="fill: #e8cb45"/>
  </svg>
  <svg x="171.875" y="240.133" width="15.625" height="68.9875" >
    <rect x="0%" y="0%" height="100%" width="100%" style="fill: #43a5eb"/>
  </svg>
  <svg x="0" y="157.073" width="15.625" height="158.544" >
    <rect x="0%" y="0%" height="100%" width="100%" style="fill: #93b044"/>
  </svg>
  <svg x="250" y="0.0587607" width="62.5" height="316.672" >
    <rect x="0%" y="0%" height="100%" width="100%" style="fill: #1e9ca4"/>
  </svg>
  <svg x="343.75" y="141.445" width="15.625" height="188.67" >
    <rect x="0%" y="0%" height="100%" width="100%" style="fill: #c2b0fb"/>
  </svg>
  <svg x="406.25" y="132.992" width="15.625" height="200.826" >
    <rect x="0%" y="0%" height="100%" width="100%" style="fill: #3d3087"/>
  </svg>
  <svg x="312.5" y="141.445" width="15.625" height="210.15" >
    <rect x="0%" y="0%" height="100%" width="100%" style="fill: #5cbf29"/>
  </svg>
  <svg x="15.625" y="157.073" width="15.625" height="197.977" >
    <rect x="0%" y="0%" height="100%" width="100%" style="fill: #abd5b1"/>
  </svg>
  <svg x="78.125" y="157.073" width="15.625" height="220.377" >
    <rect x="0%" y="0%" height="100%" width="100%" style="fill: #acf389"/>
  </svg>
  <svg x="390.625" y="132.992" width="15.625" height="248.5" >
    <rect x="0%" y="0%" height="100%" width="100%" style="fill: #84b35a"/>
  </svg>
  <svg x="218.75" y="93.0536" width="31.25" height="308.303" >
    <rect x="0%" y="0%" height="100%" width="100%" style="fill: #e88280"/>
  </svg>
  <svg x="328.125" y="141.445" width="15.625" height="284.385" >
    <rect x="0%" y="0%" height="100%" width="100%" style="fill: #9dd4cf"/>
  </svg>
  <svg x="187.5" y="93.0536" width="31.25" height="333.781" >
    <rect x="0%" y="0%" height="100%" width="100%" style="fill: #e7abc5"/>
  </svg>
  <svg x="375" y="132.992" width="15.625" height="339.484" >
    <rect x="0%" y="0%" height="100%" width="100%" style="fill: #c61baa"/>
  </svg>
  <svg x="421.875" y="132.992" width="15.625" height="367.008" >
    <rect x="0%" y="0%" height="100%" width="100%" style="fill: #52e053"/>
  </svg>
</svg>
